<svg width="256" height="32" viewBox="0 0 256 32" fill="none" xmlns="http://www.w3.org/2000/svg">
<path d="M240 25.7179L249.888 32L247.264 20.16L256 12.1937L244.496 11.1495L240 0L235.504 11.1495L224 12.1937L232.72 20.16L230.112 32L240 25.7179Z" fill="#A3A3A4"/>
<path d="M184 25.7179L193.888 32L191.264 20.16L200 12.1937L188.496 11.1495L184 0L179.504 11.1495L168 12.1937L176.72 20.16L174.112 32L184 25.7179Z" fill="#FACD5D"/>
<path d="M128 25.7179L137.888 32L135.264 20.16L144 12.1937L132.496 11.1495L128 0L123.504 11.1495L112 12.1937L120.72 20.16L118.112 32L128 25.7179Z" fill="#FACD5D"/>
<path d="M72 25.7179L81.888 32L79.264 20.16L88 12.1937L76.496 11.1495L72 0L67.504 11.1495L56 12.1937L64.72 20.16L62.112 32L72 25.7179Z" fill="#FACD5D"/>
<path d="M16 25.7179L25.888 32L23.264 20.16L32 12.1937L20.496 11.1495L16 0L11.504 11.1495L0 12.1937L8.72 20.16L6.112 32L16 25.7179Z" fill="#FACD5D"/>
</svg>
