<svg width="48" height="48" viewBox="0 0 48 48" fill="none" xmlns="http://www.w3.org/2000/svg">
<rect width="48" height="48" rx="10" fill="#F7F7F7"/>
<path fill-rule="evenodd" clip-rule="evenodd" d="M28.8571 21.4286C28.8571 17.3259 25.5313 14 21.4286 14C17.3259 14 14 17.3259 14 21.4286C14 25.5313 17.3259 28.8571 21.4286 28.8571C23.2686 28.8571 24.96 28.1829 26.2629 27.0743L26.5714 27.3829V28.2857L32.2857 34L34 32.2857L28.2857 26.5714H27.3829L27.0743 26.2629C28.1829 24.96 28.8571 23.2686 28.8571 21.4286ZM16.2857 21.4286C16.2857 18.5714 18.5714 16.2857 21.4286 16.2857C24.2857 16.2857 26.5714 18.5714 26.5714 21.4286C26.5714 24.2857 24.2857 26.5714 21.4286 26.5714C18.5714 26.5714 16.2857 24.2857 16.2857 21.4286Z" fill="black"/>
</svg>
