<svg width="104" height="64" viewBox="0 0 104 64" fill="none" xmlns="http://www.w3.org/2000/svg">
<path fill-rule="evenodd" clip-rule="evenodd" d="M0 12C0 5.37258 5.37258 0 12 0H92C98.6274 0 104 5.37258 104 12V52C104 58.6274 98.6274 64 92 64H12C5.37259 64 0 58.6274 0 52V12Z" fill="#FACD5D"/>
<path fill-rule="evenodd" clip-rule="evenodd" d="M56.3636 20C53.1503 20 50.5455 22.6863 50.5455 26C50.5455 29.3137 53.1503 32 56.3636 32C59.5769 32 62.1818 29.3137 62.1818 26C62.1818 22.6863 59.5769 20 56.3636 20ZM56.3636 22.85C58.0509 22.85 59.4182 24.26 59.4182 26C59.4182 27.74 58.0509 29.15 56.3636 29.15C54.6767 29.15 53.3091 27.7397 53.3091 26C53.3091 24.2603 54.6767 22.85 56.3636 22.85ZM40.3636 29V24.5H43.2727V29H47.6364V32H43.2727V36.5H40.3636V32H36V29H40.3636ZM56.3636 33.5C52.48 33.5 44.7273 35.495 44.7273 39.5V44H68V39.5C68 35.495 60.2473 33.5 56.3636 33.5ZM65.2364 39.5C65.2364 38.54 60.6836 36.35 56.3636 36.35C52 36.35 47.4909 38.54 47.4909 39.5V41.15H65.2364V39.5Z" fill="black"/>
</svg>
