<svg width="64" height="64" viewBox="0 0 64 64" fill="none" xmlns="http://www.w3.org/2000/svg">
<circle cx="32" cy="32" r="32" fill="#FACD5D"/>
<mask id="mask0_0_4652" style="mask-type:luminance" maskUnits="userSpaceOnUse" x="0" y="0" width="64" height="64">
<circle cx="32" cy="32" r="32" fill="white"/>
</mask>
<g mask="url(#mask0_0_4652)">
<path d="M22.3107 46.3999L15.644 68.1777L13.6885 73.2443C13.6885 73.2443 16.5329 76.8888 23.2885 78.311C27.9107 79.2888 31.0218 79.3777 33.0663 79.1999C34.7551 79.0221 36.7996 78.6666 35.7329 75.5555C34.2218 70.9332 34.7552 67.9999 34.7552 67.9999L37.1552 54.9332L22.3107 46.3999V46.3999Z" fill="#EA9D7D"/>
<path d="M21.3327 58.1332C23.5549 61.511 27.466 64.3555 29.6882 65.4221C32.7993 66.9332 35.0215 67.2888 35.0215 67.2888L37.066 56.4443L22.4882 46.3999L21.6882 47.911L21.066 50.3999C20.7993 50.3999 19.2882 55.0221 21.3327 58.1332Z" fill="url(#paint0_linear_0_4652)"/>
<path d="M14.2218 73.3333H14.133C13.9664 73.2483 13.8629 73.0758 13.8663 72.8888L18.0441 60.0888C18.8441 57.4221 21.2441 48.4444 21.2441 48.4444C21.329 48.2778 21.5015 48.1743 21.6885 48.1777C21.8551 48.2627 21.9586 48.4352 21.9552 48.6221L18.7552 60.2666C18.0441 62.6666 14.5774 72.9777 14.5774 72.9777C14.5774 73.2444 14.3996 73.3333 14.2218 73.3333Z" fill="#CF7653"/>
<path d="M24.7998 51.5555L24.9776 51.9999L25.3332 51.5555H24.7998Z" fill="#A84D3B"/>
<path fill-rule="evenodd" clip-rule="evenodd" d="M24.6221 51.7334L24.7998 50.9333L25.511 51.6445L24.6221 51.7334ZM29.5999 55.3778V54.4L30.5776 54.9334L29.5999 55.3778ZM27.1999 52.8889L27.0221 53.7778L28.0887 53.5111L27.1999 52.8889ZM25.6888 52.8L25.8665 51.9111L26.7554 52.5333L25.6888 52.8Z" fill="#A84D3B"/>
<path fill-rule="evenodd" clip-rule="evenodd" d="M23.8223 51.0222L24.2667 50.1333L24.8889 51.0222H23.8223ZM30.4889 55.9111L30.8445 56.4444L30.1334 56.6222L30.4889 55.9111ZM29.6889 55.4666L29.1556 54.8444L28.8889 55.5555L29.6889 55.4666ZM32.7111 56.7111L33.3334 57.4222L32.4445 57.5111L32.7111 56.7111ZM35.9112 58.3111L35.3778 57.6889L35.1112 58.4L35.9112 58.3111ZM30.6667 54.9333L31.2889 55.2L30.6667 55.6444V54.9333ZM32.5333 57.9555L32.0889 57.4222L31.7333 58.1333L32.5333 57.9555ZM28.4445 54.0444L29.0667 54.3111L28.4445 54.7555V54.0444Z" fill="#A84D3B"/>
<path fill-rule="evenodd" clip-rule="evenodd" d="M23.377 48.6222L23.0215 48.9777L23.4659 49.1555L23.377 48.6222ZM25.9548 52.9778L26.3104 52.7111L26.4881 53.2444L25.9548 52.9778ZM33.6881 56.1777L32.8881 55.8222V56.9777L33.6881 56.1777ZM35.4659 56.5333L34.7548 56.3555L34.9326 57.2444L35.4659 56.5333ZM35.9104 57.8666L36.5326 57.9555L36.177 58.5777L35.9104 57.8666ZM34.1326 57.6889L33.777 57.1555L33.3326 57.7778L34.1326 57.6889ZM36.3548 59.1111L36.2659 59.7333L35.6437 59.3778L36.3548 59.1111ZM35.9993 60.9777L36.1771 60.3555L35.4659 60.5333L35.9993 60.9777ZM34.1326 61.2444L34.4881 60.9778L34.6659 61.5111L34.1326 61.2444ZM34.8437 57.5111L34.4882 57.7777L34.9326 58.0444L34.8437 57.5111ZM36.3548 56.8L36.7993 56.8889L36.4437 57.3333L36.3548 56.8ZM35.1992 61.9555L34.8437 62.3111L35.2881 62.4889L35.1992 61.9555ZM32.0881 56.8L32.3548 57.0666L31.9104 57.2444L32.0881 56.8ZM29.777 56.3555L29.9548 55.9111L29.5104 56L29.777 56.3555ZM31.1993 56.8L31.1104 57.1555L30.7548 56.8H31.1993ZM32.977 58.8444L33.1548 59.2889L33.5104 58.9333L32.977 58.8444ZM35.1993 57.3333L35.5548 57.1555L35.6437 57.6L35.1993 57.3333Z" fill="#A84D3B"/>
<path fill-rule="evenodd" clip-rule="evenodd" d="M22.133 51.7333L21.8663 51.5555L21.7775 51.9111L22.133 51.7333ZM25.6886 52L25.1552 52.3556L25.7774 52.7111L25.6886 52ZM24.2663 53.0667V52.6222L24.7997 52.8889L24.2663 53.0667ZM31.1997 55.8222L31.6441 55.5555L31.1997 55.2889V55.8222ZM24.7108 55.9111L24.8886 55.7333L25.0663 56L24.7108 55.9111ZM35.1997 56.9778L35.733 56.6222L35.8219 57.3333L35.1997 56.9778ZM34.2219 57.2444L34.5774 57.0667L34.6663 57.5111L34.2219 57.2444ZM34.933 63.3778L34.5774 63.5555L35.0219 63.8222L34.933 63.3778ZM34.133 62.6666L34.0441 62.3111L34.4886 62.4L34.133 62.6666ZM33.9552 60.1778L34.0441 60.5333L34.3997 60.2667L33.9552 60.1778ZM35.3774 60.8L35.6441 61.0667L35.1997 61.2444L35.3774 60.8ZM23.2886 56.8889L23.4663 57.0666L23.6441 56.7111L23.2886 56.8889ZM26.7552 58.9333L26.4886 58.8444V59.1111L26.7552 58.9333ZM25.6886 57.6889L25.8663 57.4222L26.0441 57.6889H25.6886ZM31.9108 60.2666V60.7111L32.4441 60.5333L31.9108 60.2666ZM31.1108 56.6222V56.1778L31.6441 56.4444L31.1108 56.6222ZM34.933 59.1111L34.5774 59.2L34.8441 59.5555L34.933 59.1111ZM33.4219 62.4L33.5997 62.7556H33.1552L33.4219 62.4ZM33.9552 58.1333L34.133 58.5778L34.4886 58.1333H33.9552ZM35.5552 59.1111L35.2885 58.6667H35.9108L35.5552 59.1111ZM36.2663 57.0667L35.9997 57.3333L36.4441 57.5111L36.2663 57.0667ZM35.3774 59.6444L35.733 59.8222L35.3774 60.0889V59.6444ZM23.6441 52.4444L23.9108 52.6222L23.5552 52.8L23.6441 52.4444ZM21.6886 54.2222L21.5997 54.4889L21.333 54.2222H21.6886Z" fill="#A84D3B"/>
<path fill-rule="evenodd" clip-rule="evenodd" d="M22.5775 49.1556L22.3108 48.9778L22.2219 49.4222L22.5775 49.1556ZM23.4664 49.7778L23.733 49.2445L24.1775 49.8667L23.4664 49.7778ZM23.9997 51.6444L24.1775 52.2667L24.7108 51.7333L23.9997 51.6444ZM25.0664 52.5333L25.2441 52.8889L25.5108 52.5333H25.0664ZM26.4886 53.6L26.2219 53.7778L26.5775 53.9556L26.4886 53.6ZM26.8441 53.4222L27.1108 53.2444L27.1997 53.6L26.8441 53.4222ZM27.8219 53.6L27.5553 53.7778L27.9108 53.9556L27.8219 53.6ZM26.3108 55.7333L26.5775 55.9111L26.2219 56.0889L26.3108 55.7333ZM21.2441 52.8889L21.4219 53.2444L21.6886 52.8889H21.2441ZM23.0219 51.1111L23.1997 50.8445L23.2886 51.2L23.0219 51.1111ZM23.1108 54.2222L22.8442 54.0445V54.4L23.1108 54.2222ZM23.6441 50.8445L23.4664 50.4889H23.9108L23.6441 50.8445ZM24.2664 51.0222L24.4442 51.3778L24.7108 51.0222H24.2664ZM22.0441 50.3111L22.2219 50.0445L22.3108 50.4889L22.0441 50.3111ZM27.2886 54.4889V54.0445L27.6441 54.3111L27.2886 54.4889ZM28.8886 54.8444L28.6219 54.9333L28.7997 55.2L28.8886 54.8444ZM27.9108 54.2222L28.1775 54.1333L28.0886 54.4889L27.9108 54.2222ZM34.133 56.8L33.8664 56.8889L34.0441 57.1556L34.133 56.8ZM32.5331 56.2667L32.8886 56.1778L32.7997 56.5333L32.5331 56.2667ZM28.7108 56.8889L28.5331 56.5333L28.2664 56.8889H28.7108ZM33.5108 60.9778L33.6886 61.2445H33.2441L33.5108 60.9778ZM28.1775 55.9111L27.9997 55.6445L27.8219 55.9111H28.1775ZM30.933 55.6445L30.4886 55.8222V55.4667L30.933 55.6445ZM31.9997 55.7333V56.1778L32.3553 56L31.9997 55.7333ZM33.2442 56.6222L33.5108 56.5333L33.4219 56.9778L33.2442 56.6222ZM32.3553 58.4L32.1775 58.1334L31.9997 58.4H32.3553ZM28.8886 58.4889L28.4441 58.6667V58.3111L28.8886 58.4889ZM30.2219 57.3333L29.8664 57.4222L30.133 57.6889L30.2219 57.3333ZM33.0664 57.7778L33.2441 58.0444H32.8886L33.0664 57.7778Z" fill="#A84D3B"/>
<path d="M43.9104 25.0666C43.9104 25.0666 46.4882 29.2443 46.9327 31.1999C47.3771 32.8888 47.466 34.5777 47.466 35.5555C47.466 39.2888 47.1993 44.5332 46.7549 47.4666C45.866 52.5332 43.466 55.5555 40.6215 56.4443C37.7771 57.3332 32.6215 55.4666 29.1549 53.6888C26.2215 52.1777 24.5327 50.5777 24.0882 48.711C23.6438 46.7555 22.7549 44.2666 22.7549 44.2666L22.9327 38.4888L29.7771 23.911L43.9104 25.0666Z" fill="#EA9D7D"/>
<path d="M26.311 41.1555C26.311 41.1555 31.4666 35.3777 34.7555 34.1333C41.0666 31.5555 47.1999 31.8221 47.1999 31.8221L46.2221 28.711L28.2666 26.311L24.3555 37.511L26.311 41.1555Z" fill="url(#paint1_linear_0_4652)"/>
<ellipse cx="20.8888" cy="43.2888" rx="4.71111" ry="5.06667" fill="#EA9D7D"/>
<path fill-rule="evenodd" clip-rule="evenodd" d="M15.7334 43.2888C15.7334 46.2221 18.0445 48.711 20.889 48.711C23.7334 48.711 26.0445 46.2221 26.0445 43.2888C26.0445 40.3555 23.7334 37.8666 20.889 37.8666C18.0445 37.8666 15.7334 40.2666 15.7334 43.2888ZM16.5334 43.2888C16.5334 40.711 18.489 38.5777 20.889 38.5777C23.289 38.5777 25.2445 40.6221 25.2445 43.2888C25.2445 45.8666 23.289 47.9999 20.889 47.9999C18.489 47.9999 16.5334 45.8666 16.5334 43.2888Z" fill="#B76349"/>
<ellipse cx="21.0659" cy="43.2889" rx="2.13333" ry="2.22223" fill="url(#paint2_linear_0_4652)"/>
<path d="M26.0445 40.0889L24.5334 41.4222L23.9111 46.4L24.1778 47.8222C24.1778 47.8222 26.3111 46.6666 26.4889 44.3555C26.6667 42.0444 26.0445 40.0889 26.0445 40.0889V40.0889Z" fill="#EA9D7D"/>
<path d="M37.6883 56.7999C36.7106 56.7999 35.9106 56.6221 34.1328 56.1777C31.2883 55.4666 27.2883 53.2443 25.2439 51.2888C23.2883 49.3332 23.4661 47.4666 23.4661 47.3777C23.4661 47.1999 23.4661 46.9332 23.6439 46.9332C23.8217 46.9332 23.9106 47.111 23.9995 47.2888C24.0883 47.6443 24.0883 49.1555 25.6883 50.7555C27.555 52.6221 31.555 54.7555 34.2217 55.4666C36.9772 56.0888 37.5106 56.2666 39.555 56.0888C41.5106 55.911 42.6661 55.111 42.6661 55.111C42.9328 54.9332 43.1995 54.8443 43.0217 55.111C42.8439 55.2888 41.4217 56.4443 39.6439 56.711C38.8439 56.7999 38.3106 56.7999 37.6883 56.7999Z" fill="#B76349"/>
<path fill-rule="evenodd" clip-rule="evenodd" d="M39.3774 40.0888L38.2218 39.3777L39.5552 38.6666L39.3774 40.0888ZM38.6663 42.8444L38.0441 43.3777L37.8663 42.5777L38.6663 42.8444ZM30.0441 42.5778L30.2218 43.0222H29.5996L30.0441 42.5778ZM40.5329 43.9111L41.4218 44.4444L41.5107 43.3777L40.5329 43.9111Z" fill="#F4B9A6"/>
<path fill-rule="evenodd" clip-rule="evenodd" d="M39.1996 33.6888L38.9329 34.3111L39.7329 34.2222L39.1996 33.6888ZM39.3774 37.9555L38.2218 38.6666V37.0666L39.3774 37.9555ZM42.044 45.8666L40.8885 46.5777V45.0666L42.044 45.8666ZM42.044 45.1555L42.4885 43.9111H40.9774L42.044 45.1555ZM37.0663 42.7555L37.7774 42.5777L37.5107 43.3777L37.0663 42.7555ZM38.3107 41.6L37.5107 41.7777L38.044 42.4L38.3107 41.6ZM38.3996 46.1333L38.1329 45.4222L39.0218 45.5111L38.3996 46.1333ZM38.4885 46.7555L39.1107 47.1111L39.2885 46.4L38.4885 46.7555ZM41.4218 49.1555L42.1329 48.8888L41.9551 49.7777L41.4218 49.1555ZM39.2885 38.0444L39.9107 38.1333L39.5552 38.6666L39.2885 38.0444ZM40.5329 35.9111L39.9107 35.8222L40.0885 36.4444L40.5329 35.9111ZM35.2885 37.9555L35.3774 37.1555L36.0885 37.6L35.2885 37.9555ZM37.0663 35.9111L36.444 36.3555L37.1552 36.8L37.0663 35.9111ZM33.6885 36.9777H34.1329L33.9551 37.4222L33.6885 36.9777ZM40.8885 48.9777L40.2662 49.1555L40.7107 49.6L40.8885 48.9777ZM39.5552 48.7111L40.1774 48.5333L39.9996 49.2444L39.5552 48.7111ZM34.844 44.6222L34.2218 44.7111L34.5774 45.3333L34.844 44.6222ZM35.7329 45.9555L36.3552 45.7777L36.0885 46.4889L35.7329 45.9555ZM34.3107 42.6666L34.2218 43.2L34.9329 43.0222L34.3107 42.6666ZM37.244 41.4222L37.5107 41.9555H36.7996L37.244 41.4222ZM43.9996 47.1111L44.3552 46.7555L43.7329 46.6666L43.9996 47.1111ZM41.8663 45.4222L41.5107 45.3333L41.8663 44.9777V45.4222ZM45.5107 41.6L45.8663 41.4222L45.5107 41.2444V41.6ZM44.0885 43.2888L43.6441 43.2L43.9107 42.8444L44.0885 43.2888Z" fill="#F4B9A6"/>
<path fill-rule="evenodd" clip-rule="evenodd" d="M38.4888 35.6444L39.2888 35.4666L38.6665 34.8444L38.4888 35.6444ZM32.4443 38.9332L32.711 38.4888L32.9777 38.9332H32.4443ZM45.7777 41.511L45.6888 41.8666L45.3332 41.5999L45.7777 41.511ZM40.8888 44.3555L39.2888 44.7999L39.5554 43.0221L40.8888 44.3555ZM38.0443 38.7555L37.4221 38.6666L37.511 39.2888L38.0443 38.7555ZM32.711 42.7555L33.4221 42.4888V43.0221L32.711 42.7555ZM36.9777 36.9777L37.0665 37.7777L37.7777 37.2443L36.9777 36.9777ZM36.7999 38.6666L36.0888 39.0221L35.9999 38.311L36.7999 38.6666ZM36.7999 37.7777L36.8888 38.5777L37.5999 38.1332L36.7999 37.7777ZM44.0888 37.2443L43.4665 36.9777L44.0888 36.5332V37.2443ZM38.1332 40.7999L37.7777 40.3555L37.3332 40.9777L38.1332 40.7999ZM40.5332 48.3555L41.1554 48.1777L40.9777 48.8888L40.5332 48.3555ZM38.3999 44.3555L38.2221 44.7999H38.8443L38.3999 44.3555ZM38.7554 47.0221L39.0221 47.4666L38.4888 47.5555L38.7554 47.0221ZM39.911 47.911L40.2666 47.5555L39.7332 47.3777L39.911 47.911ZM40.6221 46.3999L40.1777 46.7555L39.9999 46.1332L40.6221 46.3999Z" fill="#F4B9A6"/>
<path fill-rule="evenodd" clip-rule="evenodd" d="M40.088 34.4888L39.6436 34.8443L40.2658 35.0221L40.088 34.4888ZM42.8436 35.7332L42.2213 35.911L42.3991 35.1999L42.8436 35.7332ZM38.1325 37.4221L38.7547 37.3332L38.3102 36.7999L38.1325 37.4221ZM40.4436 39.8221L41.1547 39.1999L41.5102 40.1777L40.4436 39.8221ZM38.3103 40.4443L38.0436 39.9999H38.6658L38.3103 40.4443ZM32.1769 41.2443L31.8214 40.7999L31.5547 41.4221L32.1769 41.2443ZM40.1769 43.0221L39.7325 43.3777L39.5547 42.7555L40.1769 43.0221ZM40.6214 45.6888L40.088 46.1332L39.9103 45.4221L40.6214 45.6888ZM38.488 43.6443L38.9325 43.911L39.1102 43.4665L38.488 43.6443ZM43.288 47.911L43.8214 47.8221L43.6436 48.3554L43.288 47.911ZM40.9769 42.8443L40.7991 43.2888L41.4214 43.1999L40.9769 42.8443ZM42.0436 47.8221L42.3991 48.2666L41.7769 48.3554L42.0436 47.8221ZM39.288 50.0443L39.3769 50.6665L39.9102 50.2221L39.288 50.0443ZM37.2436 47.3777L37.688 47.1999V47.7332L37.2436 47.3777ZM38.5769 48.0888L38.488 48.6221L38.1325 48.4443L38.5769 48.0888ZM36.5325 47.5554L36.888 47.7332L36.9769 47.111L36.5325 47.5554ZM33.5102 48.711L33.688 48.1777L34.1325 48.6221L33.5102 48.711ZM35.6436 50.1332H35.1102L35.288 50.6666L35.6436 50.1332ZM33.3325 50.7554L33.7769 50.8443L33.4214 51.2888L33.3325 50.7554ZM38.8436 42.4888L39.9102 42.2221L39.0214 41.3332L38.8436 42.4888ZM38.1325 40.9777L38.6658 41.7777L39.3769 40.7999L38.1325 40.9777ZM34.5769 40.4443L34.0436 40.711L34.5769 40.9777V40.4443ZM39.8213 40.8888L40.1769 40.5332L40.3547 41.0665L39.8213 40.8888ZM42.7547 38.6666L42.1325 38.8443L42.2214 38.1332L42.7547 38.6666ZM37.7769 38.8443L38.488 38.6665L37.9547 38.2221L37.7769 38.8443ZM34.6658 36.0888L35.1991 35.8221V36.3554L34.6658 36.0888ZM35.9102 44.1777L35.8213 44.8888L36.6214 44.6221L35.9102 44.1777ZM34.3103 43.9999L34.9325 43.911L34.6658 44.5332L34.3103 43.9999ZM36.2658 46.5777L36.1769 47.2888L36.888 47.0221L36.2658 46.5777ZM37.1547 44.711V43.9999L37.9547 44.2665L37.1547 44.711ZM36.5325 45.3332L36.6214 46.0443L37.3325 45.5999L36.5325 45.3332ZM35.7325 42.8443V43.3777L35.1991 43.111L35.7325 42.8443Z" fill="#F4B9A6"/>
<path fill-rule="evenodd" clip-rule="evenodd" d="M35.8223 35.9999L36.3556 35.7333V36.2666L35.8223 35.9999ZM41.6 37.4222L41.3334 37.0666L41.9556 36.9777L41.6 37.4222ZM44.2667 38.9333L43.6445 39.1111L43.7334 38.4L44.2667 38.9333ZM45.9556 44.1777L46.4889 43.9111L46.0445 43.5555L45.9556 44.1777ZM40.0889 37.3333V37.9555L40.8001 37.7777L40.0889 37.3333ZM39.2889 36.7999L39.3778 36.1777L40.0001 36.5333L39.2889 36.7999ZM39.8223 42.1333L40.8889 42.8444L41.2445 41.5111L39.8223 42.1333ZM43.5556 41.7777L42.4001 42.1333L42.7556 40.7111L43.5556 41.7777ZM39.5556 42.7555L39.9112 42.8444L39.8223 42.3999L39.5556 42.7555ZM38.8445 40.7111L39.0223 40.2666L39.4667 40.7111H38.8445ZM40.0889 38.9333L39.4667 39.0222L39.8223 39.5555L40.0889 38.9333ZM41.4223 39.2888L42.0445 39.1999L41.7778 39.8222L41.4223 39.2888Z" fill="#F4B9A6"/>
<path fill-rule="evenodd" clip-rule="evenodd" d="M41.5998 35.0221L41.9554 34.311H41.0665L41.5998 35.0221ZM39.6442 40.0888L40.9776 39.3777L39.5553 38.4888L39.6442 40.0888ZM40.8887 44.5332L40.622 45.1555L40.0887 44.5332H40.8887ZM39.4665 41.7777L40.622 41.1555L39.3776 40.3555L39.4665 41.7777ZM40.622 36.8888L40.1776 36.5332L40.7998 36.3555L40.622 36.8888ZM41.5998 37.511L40.9776 38.4888L42.3109 38.5777L41.5998 37.511ZM42.222 36.6221L42.4887 36.2666L42.8442 36.711L42.222 36.6221ZM43.1109 40.0888L43.4665 40.4443L43.6442 39.911L43.1109 40.0888ZM41.1554 36.0888L41.422 35.7332L41.7776 36.1777L41.1554 36.0888ZM33.5109 40.9777L32.8887 41.1555L33.422 41.6888L33.5109 40.9777ZM34.1331 38.8444L34.3998 38.311L34.8442 38.8444H34.1331ZM35.7331 38.311L35.6442 37.7777L35.1998 38.2221L35.7331 38.311ZM34.9331 40.6221L35.022 41.1555L34.3998 41.0666L34.9331 40.6221Z" fill="#F4B9A6"/>
<path fill-rule="evenodd" clip-rule="evenodd" d="M28.7109 28.1777V27.2L29.5998 27.6444L28.7109 28.1777ZM45.7776 29.5999L46.0443 29.8666L46.1332 29.4222L45.7776 29.5999ZM44.4443 30.3111L44.1776 30.0444L44.6221 29.8666L44.4443 30.3111ZM37.4221 30.7555L37.511 30.3111L37.7776 30.7555H37.4221ZM37.4221 31.1111L37.6887 31.4666L37.3332 31.5555L37.4221 31.1111ZM41.1554 30.8444L40.8887 30.5777L40.7109 30.9333L41.1554 30.8444ZM45.5998 30.0444L45.2443 30.1333L45.3332 29.6888L45.5998 30.0444ZM38.5776 30.8444L38.3109 30.5777L38.1332 30.9333L38.5776 30.8444ZM42.3998 30.3111L42.7554 30.5777L42.3109 30.7555L42.3998 30.3111ZM36.9776 31.0222L36.7109 30.6666L36.5332 31.1111L36.9776 31.0222ZM34.2221 29.6L34.0443 30.0444L34.5776 29.9555L34.2221 29.6ZM30.5776 28.7111V28.2666L31.022 28.5333L30.5776 28.7111ZM30.3998 29.9555L30.3109 30.3999L30.8443 30.2222L30.3998 29.9555ZM30.9332 31.4666L30.8443 30.9333L31.3776 31.1111L30.9332 31.4666ZM35.1109 30.2222L34.7554 29.9555L34.5776 30.3111L35.1109 30.2222ZM35.4665 30.4888L35.3776 29.8666L36.0887 30.0444L35.4665 30.4888Z" fill="#A84D3B"/>
<path fill-rule="evenodd" clip-rule="evenodd" d="M30.9327 28.4445L31.0216 29.0667L31.7327 28.7111L30.9327 28.4445ZM31.8216 29.3334L31.9994 30.0445L32.6216 29.5112L31.8216 29.3334ZM37.0661 30.6667L36.7994 30.2222H37.4216L37.0661 30.6667ZM40.3549 30.7556L40.0883 30.4L40.7105 30.3111L40.3549 30.7556ZM41.6883 30.7556L41.4216 30.3111L42.0438 30.2222L41.6883 30.7556ZM38.666 30.3111L38.8438 30.9334L39.466 30.4889L38.666 30.3111ZM33.3327 30.2222L33.155 29.8667L33.6883 29.9556L33.3327 30.2222ZM31.5549 31.4667L31.4661 31.9111L31.9105 31.7334L31.5549 31.4667ZM31.0216 32.1778L31.1105 31.8223L31.4661 32.0889L31.0216 32.1778ZM34.2216 30.1334L34.3994 30.3111L34.4883 30.1334H34.2216ZM36.3549 30.5778L36.1772 30.4L36.5327 30.3111L36.3549 30.5778ZM39.5549 30.6667L39.6438 30.8445L39.8216 30.6667H39.5549ZM30.3994 32.1778L30.6661 32.0889L30.5772 32.3556L30.3994 32.1778ZM30.4883 31.7334L30.8438 31.6445L30.7549 32L30.4883 31.7334Z" fill="#A84D3B"/>
<path fill-rule="evenodd" clip-rule="evenodd" d="M30.1329 28.9777V28.7111L30.4885 28.8888L30.1329 28.9777ZM31.3774 29.2444L31.0218 29.0666L31.3774 28.7999V29.2444ZM30.4885 31.2888L30.5774 31.7333L30.044 31.6444L30.4885 31.2888ZM33.5996 29.7777L33.9551 29.8666L33.8662 29.4222L33.5996 29.7777ZM30.9329 29.7777L31.2884 29.8666L31.1996 29.4222L30.9329 29.7777ZM30.844 33.2444V32.9777L31.1107 33.1555L30.844 33.2444ZM30.044 29.5999L29.6885 29.6888L29.9551 29.9555L30.044 29.5999ZM30.1329 32.7111V32.0888L30.7551 32.3555L30.1329 32.7111Z" fill="#A84D3B"/>
<path fill-rule="evenodd" clip-rule="evenodd" d="M29.8664 27.7333L29.9553 28.4444L30.5775 28.2666L29.8664 27.7333ZM30.5775 29.3333L30.3109 29.5999L30.222 29.2444L30.5775 29.3333ZM30.6664 32.7999L30.3108 33.0666L30.222 32.6222L30.6664 32.7999ZM29.7775 30.5777L30.1331 30.3111L29.5998 30.0444L29.7775 30.5777ZM32.0886 30.4888L31.822 30.3111L32.1775 30.1333L32.0886 30.4888ZM30.3108 34.0444L30.6664 33.8666L30.3108 33.5999V34.0444ZM29.3331 35.9999V35.5555L29.6886 35.8222L29.3331 35.9999ZM29.3331 29.511L29.0664 29.2444L29.5108 29.0666L29.3331 29.511ZM32.622 29.0666L32.7997 29.8666L33.5109 29.4222L32.622 29.0666ZM29.5997 28.9777L29.3331 28.7111L29.7775 28.6222L29.5997 28.9777ZM34.8442 30.7555L35.2886 30.9333L35.1997 30.4888L34.8442 30.7555ZM43.6442 30.6666L43.2886 30.4888L43.6442 30.2221V30.6666ZM30.0442 31.3777L30.6664 31.1111L30.0442 30.5777V31.3777ZM29.1553 28.3555L29.5109 27.7333L29.8664 28.4444L29.1553 28.3555Z" fill="#A84D3B"/>
<path fill-rule="evenodd" clip-rule="evenodd" d="M28.7998 28.5332L29.1554 28.3555V28.7999L28.7998 28.5332ZM30.9331 30.3999L31.2887 30.4888L31.022 30.7555L30.9331 30.3999ZM32.3553 29.0666L32.2664 29.4221L32.622 29.3332L32.3553 29.0666ZM29.422 29.1555L30.0442 29.4221L29.422 29.8666V29.1555Z" fill="#A84D3B"/>
<path fill-rule="evenodd" clip-rule="evenodd" d="M30.1331 28.4445L30.3109 28.8L30.4886 28.4445H30.1331ZM29.1553 28.7111L29.0664 28.9778L29.422 28.8889L29.1553 28.7111ZM31.6442 28.7111L32.0886 29.0667L31.5553 29.3334L31.6442 28.7111Z" fill="#A84D3B"/>
<path fill-rule="evenodd" clip-rule="evenodd" d="M21.1553 41.2444L21.5997 41.1555L21.4219 41.6L21.1553 41.2444ZM23.1108 43.3777V43.7333L22.7553 43.4666L23.1108 43.3777Z" fill="#964C38"/>
<path fill-rule="evenodd" clip-rule="evenodd" d="M20.1768 41.3333L20.7101 41.1555L20.6212 41.7777L20.1768 41.3333ZM21.0657 41.7778L21.5101 41.2444L21.7768 41.9555L21.0657 41.7778ZM23.0212 42.4L22.7545 42.6666L23.1101 42.7555L23.0212 42.4ZM21.9546 42.3111L22.2212 42.0444L22.3101 42.4L21.9546 42.3111Z" fill="#964C38"/>
<path fill-rule="evenodd" clip-rule="evenodd" d="M20.5322 42.1334L20.7989 41.8667L20.8878 42.2223L20.5322 42.1334ZM22.5767 42.9333L22.7545 42.6667L22.9322 43.0222L22.5767 42.9333Z" fill="#964C38"/>
<path fill-rule="evenodd" clip-rule="evenodd" d="M19.999 42.0444L20.3546 41.6888L20.6213 42.3111L19.999 42.0444ZM22.0435 43.3777L21.7768 43.2889L22.1324 43.1111L22.0435 43.3777ZM22.8435 42.1333L22.7546 42.3111H23.0212L22.8435 42.1333ZM22.9324 43.2L23.0213 43.0222L23.199 43.2H22.9324Z" fill="#964C38"/>
<path fill-rule="evenodd" clip-rule="evenodd" d="M21.9547 41.2444L21.688 41.5111L21.5992 41.1555L21.9547 41.2444ZM19.4658 41.8666L19.8214 41.5111L19.9992 42.0444L19.4658 41.8666ZM20.4436 43.1111L20.3547 42.9333H20.5325L20.4436 43.1111ZM20.977 43.4666L20.7992 43.5555L21.0658 43.6444L20.977 43.4666ZM20.7103 41.5111L20.4436 41.6888L20.7992 41.7777L20.7103 41.5111ZM19.9992 41.6L20.2658 41.6889L19.9992 41.9555V41.6Z" fill="#964C38"/>
<path fill-rule="evenodd" clip-rule="evenodd" d="M21.9546 41.9556L22.0435 41.3334L22.5768 41.7778L21.9546 41.9556ZM20.2657 41.6889V41.4223L19.999 41.5112L20.2657 41.6889ZM22.399 42.1334L22.5768 42.4001L22.7546 42.0445L22.399 42.1334Z" fill="#964C38"/>
<path fill-rule="evenodd" clip-rule="evenodd" d="M21.2436 41.1555L20.977 41.0667V41.3333L21.2436 41.1555ZM22.0436 41.9555L21.777 41.6889L22.1325 41.6L22.0436 41.9555ZM19.4658 42.8444L19.6436 42.5777L19.7325 42.8444H19.4658ZM20.8881 42.9333L20.7103 42.7555L21.0659 42.6666L20.8881 42.9333ZM21.4214 43.8222L21.2436 44.0889L21.5992 44.1777L21.4214 43.8222ZM19.377 42.2222L19.5547 41.9555L19.7325 42.2222H19.377Z" fill="#964C38"/>
<path fill-rule="evenodd" clip-rule="evenodd" d="M19.6436 42.4H19.377L19.4658 42.1333L19.6436 42.4ZM20.0881 43.7333L20.3547 43.8222L20.1769 44.0888L20.0881 43.7333Z" fill="#964C38"/>
<path fill-rule="evenodd" clip-rule="evenodd" d="M20.7993 41.4222L20.8881 41.6889L21.1548 41.5111L20.7993 41.4222ZM21.3326 42.0445L21.0659 42.1334L21.3326 42.4V42.0445ZM19.4659 42.4889L19.377 42.2222L19.2882 42.4889H19.4659ZM19.2882 43.3778L19.1993 43.1111L19.1104 43.4667L19.2882 43.3778ZM19.9104 42.4889V42.2222L20.177 42.3111L19.9104 42.4889ZM19.377 43.0222L19.1993 42.6667L19.0215 43.0222H19.377ZM19.5548 43.3778V43.1111L19.8215 43.2L19.5548 43.3778ZM22.6659 43.6444L22.577 43.3778L22.9326 43.4667L22.6659 43.6444ZM21.5104 42.1333L21.6881 42.4L21.4215 42.4889L21.5104 42.1333Z" fill="#964C38"/>
<path fill-rule="evenodd" clip-rule="evenodd" d="M45.9556 34.5777C46.0445 34.6666 46.2223 34.6666 46.3111 34.6666C46.4889 34.6666 46.6667 34.5777 46.8445 34.4C47.0139 34.1006 46.9383 33.7222 46.6667 33.5111C45.5683 32.7265 44.193 33.0499 43.8241 33.1366C43.7751 33.1482 43.7438 33.1555 43.7334 33.1555C43.3778 33.2444 43.2 33.5999 43.2889 33.9555C43.3778 34.3111 43.7334 34.4888 44.0889 34.4C44.1018 34.4 44.1352 34.3925 44.185 34.3814C44.4794 34.3156 45.3475 34.1216 45.9556 34.5777ZM32.8 36.4444C32.8889 36.5333 33.0667 36.5333 33.1556 36.5333C33.2857 36.5333 33.4159 36.4856 33.5809 36.4252C33.6413 36.4031 33.7063 36.3793 33.7778 36.3555C33.7778 36.2666 34.8445 34.7555 37.2445 34.9333C37.6 34.9333 37.9556 34.6666 37.9556 34.3111C37.9556 33.9555 37.6889 33.5999 37.3333 33.5999C34.3557 33.3518 32.9174 35.1817 32.6602 35.5088C32.641 35.5333 32.6284 35.5493 32.6222 35.5555C32.4528 35.8549 32.5284 36.2332 32.8 36.4444Z" fill="#AF361A"/>
<ellipse cx="36.3548" cy="39.9999" rx="1.24445" ry="1.24445" fill="#4F2B23"/>
<ellipse cx="45.5989" cy="39.3777" rx="1.24445" ry="1.24444" fill="#4F2B23"/>
<path d="M41.5105 47.5555C41.2439 47.5555 40.9772 47.3777 40.8883 47.0222C40.7994 46.6666 41.0661 46.3111 41.4217 46.3111C41.4217 46.3111 42.3994 46.1333 42.4883 45.3333C42.5772 44.5333 41.7772 42.3111 41.3328 41.1555C41.155 40.8 41.3328 40.4444 41.6883 40.3555C42.0439 40.1777 42.3994 40.3555 42.4883 40.7111C42.6661 41.0666 43.8216 44.0888 43.7328 45.5111C43.6439 46.8444 42.3994 47.5555 41.6883 47.6444C41.5994 47.5555 41.5105 47.5555 41.5105 47.5555Z" fill="#B4603F"/>
<path d="M38.4888 51.2888C35.111 51.111 33.6888 48.711 33.3332 47.3777C33.2443 47.0221 33.4221 46.6666 33.7776 46.5777C34.1332 46.4888 34.4888 46.6666 34.5776 47.0221C34.5776 47.111 35.2888 49.7777 38.4888 49.9555C38.8443 49.9555 39.111 50.311 39.111 50.5777C39.111 51.0221 38.8443 51.2888 38.4888 51.2888Z" fill="#CF7653"/>
<path fill-rule="evenodd" clip-rule="evenodd" d="M32.7109 41.4222C32.7109 44.6222 34.6665 47.2889 37.1554 47.2889C39.5554 47.2889 41.5998 44.6222 41.5998 41.4222C41.5998 38.2222 39.5554 35.5555 37.1554 35.5555C34.7554 35.5555 32.7109 38.2222 32.7109 41.4222ZM33.5998 41.4222C33.5998 38.6667 35.1998 36.4444 37.1554 36.4444C39.111 36.4444 40.711 38.6667 40.711 41.4222C40.711 44.1778 39.111 46.4 37.1554 46.4C35.1998 46.4 33.5998 44.1778 33.5998 41.4222Z" fill="white"/>
<path fill-rule="evenodd" clip-rule="evenodd" d="M40.5328 39.7334L41.3328 40.1778C41.3328 40.1778 41.5995 39.6445 41.955 39.7334C42.4884 39.7334 42.9328 40.0889 42.9328 40.0889L43.4661 39.3778C43.4661 39.2889 42.8439 38.8445 41.955 38.8445C41.0661 38.8445 40.5328 39.7334 40.5328 39.7334ZM26.4324 39.064L26.2812 39.9405L32.9479 41.096L33.099 40.2196L26.4324 39.064Z" fill="white"/>
<path d="M23.8219 19.1111C23.8219 19.1111 19.3775 17.3333 15.8219 23.5555C11.9108 30.4888 16.9775 39.6444 16.9775 39.6444C16.9775 39.6444 18.4886 37.4222 21.4219 37.8666C23.8219 38.2222 24.5331 39.5555 25.2442 40.3555C25.9553 41.0666 28.7997 40.4444 29.7775 37.1555C30.4886 34.5777 30.4886 32.0888 29.5997 30.3111C28.7108 28.5333 27.9108 26.4888 29.1553 27.3777C30.3997 28.2666 32.533 29.4222 35.8219 29.9555C39.1108 30.4888 45.4219 31.0222 48.6219 28.2666C51.8219 25.5999 51.9997 23.2888 51.9108 21.4222C51.8219 19.5555 50.8442 18.4888 50.8442 18.4888C50.8442 18.4888 49.0664 19.4666 48.1775 19.5555C47.2886 19.6444 46.5775 19.7333 46.6664 18.5777C46.8442 15.9111 45.333 15.0222 45.333 15.0222C45.333 15.0222 44.7108 15.8222 43.9997 16.2666C42.4886 17.1555 41.5997 17.2444 40.0886 16.7111C38.133 16.0888 36.0886 14.3111 32.0886 14.2222C29.2442 14.3111 26.0442 15.8222 23.8219 19.1111Z" fill="#C94112"/>
<path fill-rule="evenodd" clip-rule="evenodd" d="M34.3105 15.6443L33.955 14.5776L35.1994 14.8443L34.3105 15.6443ZM43.3772 17.7776L42.4883 17.0665L43.0217 16.8887L43.6439 16.6221L43.3772 17.7776ZM45.3328 15.1999L44.7994 15.911L45.6883 15.9999L45.3328 15.1999ZM40.8883 19.0221L41.8661 18.311V19.7332L40.8883 19.0221ZM38.755 16.9776L38.4883 17.4221L39.1105 17.511L38.755 16.9776ZM30.8439 15.5554L31.1994 14.9332L31.6439 15.7332L30.8439 15.5554ZM31.9994 15.6443L31.7328 16.3554L32.4439 16.4443L31.9994 15.6443ZM31.1105 16.8887L30.3105 15.9999L31.8217 15.7332L31.1105 16.8887Z" fill="#FF593E"/>
<path fill-rule="evenodd" clip-rule="evenodd" d="M30.3108 15.9999L29.4219 15.2888L30.5774 14.8444L30.3108 15.9999ZM32.3552 16.1777L33.333 16.0888L32.7996 17.1555L32.3552 16.1777ZM43.1996 19.5555L42.8441 19.8221L43.1996 20.0888V19.5555ZM39.6441 17.9555L39.9997 17.6888L40.0885 18.2221L39.6441 17.9555ZM40.7996 18.6666L41.1552 18.2221L40.533 18.0444L40.7996 18.6666ZM44.8885 19.4666L45.2441 19.1999L45.333 19.6444L44.8885 19.4666ZM44.0885 18.1332L43.6441 17.6888L43.3774 18.3999L44.0885 18.1332ZM45.5108 16.1777L45.9552 16.6221L45.2441 16.9777L45.5108 16.1777Z" fill="#FF593E"/>
<path fill-rule="evenodd" clip-rule="evenodd" d="M33.4214 15.0221L32.7991 14.4888L32.5325 15.3777L33.4214 15.0221ZM36.9769 16.4443L37.7769 16.1777L37.2436 15.6443L36.9769 16.4443ZM40.4436 16.9777L40.088 17.5999L39.6436 16.8888L40.4436 16.9777ZM40.888 17.9554L40.4436 17.511L40.1769 18.2221L40.888 17.9554ZM42.488 18.3999L42.9325 18.8443L42.2214 19.1999L42.488 18.3999ZM40.3547 18.6666L40.888 19.111L40.088 19.4666L40.3547 18.6666ZM38.3991 16.3554L38.9325 16.7999L38.2214 17.0665L38.3991 16.3554ZM32.4436 14.9332L31.8214 15.5554L31.5547 14.5777L32.4436 14.9332ZM35.8214 15.2888L35.3769 14.8443L35.1103 15.6443L35.8214 15.2888ZM33.7769 15.911L33.1547 15.1999L34.3103 14.9332L33.7769 15.911Z" fill="#FF593E"/>
<path fill-rule="evenodd" clip-rule="evenodd" d="M33.2439 14.3999L33.8661 14.5777L33.3328 15.0221L33.2439 14.3999ZM30.1328 14.4888L30.755 15.1999L31.2884 14.3999L30.1328 14.4888ZM33.0662 16.2666L32.5328 15.4666L33.5995 15.1999L33.0662 16.2666ZM33.4217 16.8888L33.2439 15.9999L34.3106 16.2666L33.4217 16.8888ZM44.4439 17.0666L44.355 16.2666L43.6439 16.711L44.4439 17.0666ZM40.7995 18.0443L40.4439 17.1555L41.5106 17.3332L40.7995 18.0443ZM38.8439 16.4444L39.1106 17.4221L39.8217 16.7999L38.8439 16.4444ZM37.8661 16.7999L37.6884 15.8221L38.6661 16.2666L37.8661 16.7999Z" fill="#FF593E"/>
<path fill-rule="evenodd" clip-rule="evenodd" d="M31.2885 14.3999L31.9107 14.5777L31.3774 15.111L31.2885 14.3999ZM29.6885 14.7554H30.3107L30.044 15.3777L29.6885 14.7554ZM42.3996 21.6888L42.1329 21.9555L42.4885 22.1332L42.3996 21.6888ZM43.9996 20.4443L44.2663 20.6221L43.9107 20.7999L43.9996 20.4443ZM43.6441 19.111L43.8218 19.5554L44.0885 19.1999L43.6441 19.111ZM39.5552 17.7777L39.3774 17.3332H39.8218L39.5552 17.7777ZM42.8441 20.4443L42.5774 20.711L42.9329 20.7999L42.8441 20.4443ZM33.0663 20.7999L33.3329 20.5332L33.4218 20.8888L33.0663 20.7999ZM42.7552 17.3332L42.1329 17.8666L42.9329 18.311L42.7552 17.3332ZM41.5996 21.0666L41.9551 21.2443L41.5996 21.4221V21.0666ZM42.2218 20.3554L42.4885 20.4443L42.3996 20.0888L42.2218 20.3554ZM40.3552 20.3554L39.8218 20.2665L40.1774 19.7332L40.3552 20.3554Z" fill="#FF593E"/>
<path fill-rule="evenodd" clip-rule="evenodd" d="M32.5323 15.111L32.8879 14.5777L32.0879 14.4888L32.5323 15.111ZM36.799 15.5554L36.4434 16.0888L35.999 15.2888L36.799 15.5554ZM42.399 17.1555L42.1323 17.8666L41.5101 17.2443L42.399 17.1555ZM39.4657 21.0666V20.711L39.8212 20.9777L39.4657 21.0666ZM41.4212 18.3999L41.7768 17.8666L41.0657 17.6888L41.4212 18.3999ZM43.199 22.1332V21.7777L43.5546 22.0443L43.199 22.1332ZM41.1546 21.7777L40.7101 21.8666L40.9768 22.1332L41.1546 21.7777ZM34.3101 22.4888L34.7546 22.3999L34.5768 22.8443L34.3101 22.4888ZM39.7323 22.5777L39.9101 22.9332L40.0879 22.5777H39.7323ZM44.799 18.7554L44.5323 18.311L45.0656 18.2221L44.799 18.7554ZM38.4879 22.0443L38.7546 21.5999H38.2212L38.4879 22.0443ZM35.0212 15.2888L35.8212 15.1999L35.4657 16.0888L35.0212 15.2888ZM40.0879 18.8443L40.4435 18.1332H39.5546L40.0879 18.8443ZM34.0434 19.6443L34.7545 19.1999V20.0888L34.0434 19.6443ZM37.3323 20.3554L36.7101 20.711L37.3323 21.0666V20.3554ZM35.1101 21.1554L34.9323 20.8888L35.2879 20.7999L35.1101 21.1554Z" fill="#FF593E"/>
<path fill-rule="evenodd" clip-rule="evenodd" d="M36.9768 15.8221L35.9101 16.3555L36.799 17.1555L37.1546 16.6221L36.9768 15.8221ZM32.799 16.9777L32.6213 17.8666L33.599 17.511L32.799 16.9777ZM33.2435 18.9332L33.4212 18.6666L33.599 18.9332H33.2435ZM36.0879 21.1555L36.3546 21.2444L36.0879 21.4222V21.1555ZM35.3768 19.8221L35.1101 20.2666L35.7323 20.3555L35.3768 19.8221ZM37.3324 23.0221L37.599 23.111L37.4213 23.3777L37.3324 23.0221ZM32.1768 21.2444L31.999 20.5333L32.799 20.711L32.1768 21.2444ZM35.3768 17.3332L36.0879 16.9777L36.2657 17.4221L35.999 17.9555L35.3768 17.3332Z" fill="#FF593E"/>
<path fill-rule="evenodd" clip-rule="evenodd" d="M35.1993 15.7332L34.666 15.5554L34.0438 15.7332L34.5771 16.6221L35.1993 15.7332ZM35.0215 16.3554L36.4438 16.5332L35.5549 17.511L35.0215 16.3554ZM36.1771 18.1332L35.5549 17.7776L35.0215 17.8665L35.1993 19.111L36.1771 18.1332ZM31.5549 20.5332L30.7549 20.9776L31.6438 21.4221L31.5549 20.5332ZM38.5771 17.511L39.7326 17.7776L38.7548 18.7554L38.5771 17.511Z" fill="#FF593E"/>
<path d="M40.177 18.5777L39.0215 18.311L39.1993 19.5555L40.177 18.5777Z" fill="#FF593E"/>
<path fill-rule="evenodd" clip-rule="evenodd" d="M31.9992 16.5332L32.6215 17.4221L31.2881 17.5999L31.9992 16.5332ZM33.3326 17.511L33.8659 17.0665L34.4881 17.9554L33.1548 18.0443L33.3326 17.511ZM39.1104 19.0221L39.5548 19.7332L38.577 19.8221L39.1104 19.0221ZM33.5103 18.6666L32.7103 18.2221L32.5326 19.2888L33.5103 18.6666ZM38.0437 20.0888L38.3992 19.2888L37.3326 19.1999L38.0437 20.0888ZM36.977 19.8221L36.177 20.1777L36.3548 19.111L36.977 19.8221ZM43.7326 17.5999L44.3548 17.4221L43.8214 16.8888L43.7326 17.5999ZM31.9103 20.1776L31.1104 20.4443L31.2881 19.4665L31.9103 20.1776Z" fill="#FF593E"/>
<path fill-rule="evenodd" clip-rule="evenodd" d="M44.888 16.6221L44.4436 16.1777L45.1547 15.911L44.888 16.6221ZM28.2658 19.9999L27.6436 20.2666L27.8213 19.4666L28.2658 19.9999ZM35.9102 19.6443L35.7325 18.8443L34.9325 19.3777L35.9102 19.6443ZM34.6658 16.711L35.8214 17.0666L34.8436 17.9555L34.6658 16.711ZM38.488 17.2443L37.3325 16.9777L37.5102 18.2221L38.488 17.2443ZM37.1547 18.311L38.2213 18.5777L37.2436 19.5554L37.1547 18.311ZM36.888 18.3999L36.2658 18.7554L36.7991 19.2888L36.888 18.3999ZM34.0436 20.6221L34.3102 20.8888L33.9547 20.9777L34.0436 20.6221Z" fill="#FF593E"/>
<path fill-rule="evenodd" clip-rule="evenodd" d="M37.3331 17.0665L37.4219 16.6221L37.7775 16.8887L37.3331 17.0665ZM35.822 18.8443L35.9997 19.2887L36.3553 18.8443H35.822ZM33.7775 19.8221L33.3331 19.2887L33.0664 20.0887L33.7775 19.8221ZM38.6664 18.9332L38.3997 18.2221L37.7775 18.8443L38.6664 18.9332ZM34.5775 18.0443L35.2886 18.3109L34.5775 18.9332V18.0443Z" fill="#FF593E"/>
<path fill-rule="evenodd" clip-rule="evenodd" d="M36.9768 17.0665L36.7101 17.3332H37.0657L36.9768 17.0665ZM36.5323 17.511L37.3323 17.3332V18.4887L36.4435 17.8665L36.5323 17.511ZM32.3546 17.3332L32.9768 17.5999L32.3546 18.1332V17.3332ZM33.8657 18.0443L34.5768 18.3998L33.8657 18.9332V18.0443ZM38.2212 18.0443L38.1324 17.7776L37.7768 18.0443H38.2212ZM39.199 21.8665V21.4221L39.6435 21.6888L39.199 21.8665ZM37.4212 22.0443L37.599 22.3998L37.7768 22.0443H37.4212ZM38.6657 20.8887L38.2212 21.0665V20.711L38.6657 20.8887ZM37.1546 19.0221L37.2435 18.5776L36.7101 18.6665L37.1546 19.0221ZM37.5101 19.2887L37.6879 19.0221L37.9546 19.2887H37.5101ZM36.1768 20.4443L35.999 20.7999H36.3546L36.1768 20.4443ZM38.4879 17.2443L38.6657 17.4221L38.3101 17.5999L38.4879 17.2443ZM41.599 20.1776L41.6879 19.7332L41.2435 19.8221L41.599 20.1776ZM40.8879 20.7999L40.799 21.1554L40.4435 20.7999H40.8879ZM32.3546 22.3999L32.4435 21.9554L31.999 22.0443L32.3546 22.3999ZM40.6212 19.7332L40.5324 19.1999L41.1546 19.3776L40.6212 19.7332Z" fill="#FF593E"/>
<path fill-rule="evenodd" clip-rule="evenodd" d="M34.0438 17.511L33.5104 16.8887L34.3993 16.6221L34.0438 17.511ZM37.7771 18.311L37.6882 17.8665L38.2215 18.0443L37.7771 18.311ZM40.8882 20.2665L40.7104 19.9998L40.5327 20.3554L40.8882 20.2665ZM31.3771 22.6665L31.6438 22.9332L31.1993 23.0221L31.3771 22.6665ZM37.6882 20.0887L37.3326 20.1776L37.6882 20.4443V20.0887ZM37.066 19.3776L37.1549 19.7332L36.7993 19.6443L37.066 19.3776ZM17.6882 21.0665L18.9326 21.511L18.8438 19.9998L17.6882 21.0665ZM30.3104 21.3332L30.7549 21.2443L30.5771 21.6887L30.3104 21.3332ZM27.8215 18.4887L26.8438 18.6665L27.5549 19.5554L27.8215 18.4887ZM24.9771 20.6221L25.2438 20.9776H24.7104L24.9771 20.6221ZM28.6215 21.5998L28.3549 21.0665L27.9104 21.511L28.6215 21.5998ZM21.2438 21.511V20.6221L22.2215 21.1554L21.2438 21.511ZM29.3327 16.9776V17.8665L30.2216 17.511L29.3327 16.9776ZM30.8438 17.4221L30.9327 16.8887L31.466 17.1554L30.8438 17.4221ZM30.7549 17.9554V18.4887L31.2882 18.311L30.7549 17.9554ZM15.1105 25.4221L15.6438 24.0887L16.3549 25.3332L15.1105 25.4221ZM15.0215 25.511L14.7549 26.6665L15.8215 26.1332L15.0215 25.511ZM17.5104 27.7332V27.1999L18.0438 27.5554L17.5104 27.7332ZM16.266 27.1109V27.5554L16.7993 27.3776L16.266 27.1109ZM23.9993 19.1998L24.3549 18.4887L24.8882 19.1998H23.9993ZM22.8438 21.2443L22.666 20.8887L22.3104 21.2443H22.8438ZM22.2215 21.3332L22.5771 22.0443L21.6882 21.9554L22.2215 21.3332ZM28.7104 19.0221L28.3549 19.8221H29.3326L28.7104 19.0221ZM26.666 21.5998V21.1554L27.1104 21.4221L26.666 21.5998Z" fill="#FF593E"/>
<path fill-rule="evenodd" clip-rule="evenodd" d="M28.888 17.511L27.9991 17.1554L28.7991 16.4443L28.888 17.511ZM31.288 18.7554L31.3769 17.5999L32.6213 18.311L31.288 18.7554ZM19.8213 25.3332V24.9777L20.2657 25.2443L19.8213 25.3332ZM19.0213 27.1999L19.4657 27.2888L19.1102 27.6443L19.0213 27.1999ZM17.1546 25.511L17.0657 26.4888L17.9546 26.1332L17.1546 25.511ZM15.8213 26.4888V25.511L16.7102 26.1332L15.8213 26.4888ZM16.7991 28.3555L16.7102 28.7999L17.2435 28.6221L16.7991 28.3555ZM29.4213 18.8443L30.3991 19.1999L30.3102 17.9555L29.4213 18.8443ZM30.8435 17.2443L30.1324 17.3332L30.5768 18.0443L30.8435 17.2443ZM18.9324 26.8443H18.5769L18.8435 26.4888L18.9324 26.8443ZM18.9324 24.7999V25.0666L19.1991 24.8888L18.9324 24.7999ZM22.488 25.6888L22.7546 25.511V25.8666L22.488 25.6888ZM18.7546 28.7999L18.488 28.9777L18.7546 29.1554V28.7999ZM17.1546 29.9555L17.3324 29.7777L17.4213 30.1332L17.1546 29.9555ZM20.888 25.2443L20.9769 25.511L21.2435 25.2443H20.888ZM19.4657 26.2221L19.288 25.7777H19.8213L19.4657 26.2221ZM23.1991 25.0665L23.0213 25.1554L23.288 25.3332L23.1991 25.0665ZM30.0435 19.2888L30.3991 19.6443L29.8657 19.8221L30.0435 19.2888ZM45.0657 17.6888L45.5102 18.0443L45.5991 17.511L45.0657 17.6888ZM48.3546 20.6221L47.8213 19.8221H48.2657L48.888 19.7332L48.3546 20.6221ZM50.8435 18.6666L50.1324 19.1999L50.9324 19.5554L50.8435 18.6666ZM47.1991 22.4888L47.6435 22.3999L47.5546 22.8443L47.1991 22.4888ZM49.7769 22.4888L49.3324 22.6665L49.688 23.0221L49.7769 22.4888ZM48.6213 20.6221L48.9768 21.2443L48.1768 21.3332L48.6213 20.6221ZM51.1102 20.2666L50.7546 19.7332L50.3102 20.3554L51.1102 20.2666ZM47.2879 21.0666L47.6435 21.5999L46.8435 21.6888L47.2879 21.0666ZM46.7546 20.0888L46.3991 19.4666L46.0435 20.1777L46.7546 20.0888ZM49.688 19.2888V20.0888L48.888 19.6444L49.688 19.2888ZM48.3546 23.6443L48.1768 23.3777L47.9991 23.7332L48.3546 23.6443ZM48.2657 22.4888V22.0443L48.7102 22.2221L48.2657 22.4888ZM47.1102 23.111L46.7546 23.2888L47.1102 23.5554V23.111ZM46.7546 19.911L47.6435 19.8221L47.1991 20.711L46.7546 19.911Z" fill="#FF593E"/>
<path fill-rule="evenodd" clip-rule="evenodd" d="M27.4664 16.4444L27.022 17.0666L26.4886 16.2666L27.4664 16.4444ZM26.3109 17.5111L26.4887 17.0666L26.7553 17.5111H26.3109ZM27.022 17.2444L26.8442 17.5999L27.2886 17.6888L27.022 17.2444ZM23.2886 19.0221L23.3775 19.8221L24.2664 19.3777L23.2886 19.0221ZM49.6887 19.3777L50.0442 19.911L50.4886 19.3777H49.6887ZM49.3331 20.5333L48.7108 20.6222L48.9775 19.911L49.3331 20.5333ZM46.6664 21.0666L46.3998 20.8888L46.6664 20.6222V21.0666ZM46.7553 23.0222L46.4886 22.8444L46.7553 22.6666V23.0222ZM49.2442 21.511L49.422 22.0444L49.7775 21.511H49.2442ZM50.3109 21.511L49.9553 21.0666L50.5775 20.9777L50.3109 21.511ZM18.1331 23.911L17.8664 23.4666H18.3997L18.1331 23.911ZM16.9775 22.8444L17.3331 23.5555L17.8664 22.7555L16.9775 22.8444ZM17.8664 22.2221L17.2442 21.5999L18.1331 21.2444L17.8664 22.2221ZM31.1998 18.9333L30.3109 18.7555L30.5775 19.7333L31.1998 18.9333ZM29.8664 19.911L30.5775 20.0888L30.0442 20.7999L29.8664 19.911ZM39.5553 20.1777L38.7553 19.9999L39.022 20.8888L39.5553 20.1777Z" fill="#FF593E"/>
<path fill-rule="evenodd" clip-rule="evenodd" d="M27.8216 16.1777L27.2883 16.4443L27.1994 15.911L27.8216 16.1777ZM26.3105 16.4443L26.5772 17.2443L25.5994 17.0666L26.3105 16.4443ZM26.5772 17.4221L27.1105 18.0444L26.2216 18.311L26.5772 17.4221ZM25.8661 18.1332L26.3105 17.4221L25.4216 17.2444L25.8661 18.1332ZM29.2438 17.0666L28.7994 16.9777L29.1549 16.5332L29.2438 17.0666ZM27.9994 17.0666L27.2883 16.7999L27.3772 17.5999L27.9994 17.0666ZM30.3994 15.9999L29.3327 16.4443L30.2216 17.3332L30.3994 15.9999ZM16.7994 27.9999V27.6444L17.2438 27.911L16.7994 27.9999ZM17.5105 23.3777L17.6883 23.7332L17.866 23.3777H17.5105ZM15.3772 28.8888L15.7327 28.7999L15.6439 29.1555L15.3772 28.8888ZM16.266 28.3555L16.1772 27.9999L15.9105 28.3555H16.266ZM17.066 25.2443L16.2661 24.711L17.2438 24.1777L17.066 25.2443ZM19.4661 23.111L19.8216 23.1999V22.7555L19.4661 23.111ZM16.6216 22.4888L17.0661 21.7777L17.5994 22.6666L16.6216 22.4888ZM18.2216 25.1555L18.1327 25.7777L18.8438 25.511L18.2216 25.1555ZM18.3105 21.7777L19.0216 21.8666L18.4883 22.5777L18.3105 21.7777ZM20.1772 23.7332L19.3772 23.8221L19.8216 24.5332L20.1772 23.7332ZM18.3105 22.7555L19.1105 22.6666L18.8438 23.4666L18.3105 22.7555ZM20.9772 20.711L20.2661 20.7999L20.7105 21.511L20.9772 20.711ZM16.9772 23.9999L15.7327 23.8221L16.5327 22.5777L16.9772 23.9999ZM14.7549 26.8443L14.4883 27.911L15.8216 27.6443L14.7549 26.8443ZM17.955 26.2221L18.4883 26.0443L18.3994 26.7555L17.955 26.2221ZM16.266 26.6666L16.8883 26.8444L16.7994 26.1332L16.266 26.6666ZM17.6883 28.5332L17.3327 28.711V28.3555L17.6883 28.5332ZM16.266 29.1554L15.9994 29.2443L16.1772 29.511L16.266 29.1554ZM23.5549 21.2444L23.9994 20.8888L24.0883 21.511L23.5549 21.2444ZM23.2883 19.911L22.8438 20.1777L23.3772 20.5332L23.2883 19.911ZM20.7994 20.1777L21.5105 19.6444L21.6883 20.6221L20.7994 20.1777Z" fill="#FF593E"/>
<path fill-rule="evenodd" clip-rule="evenodd" d="M25.4215 19.2888L25.066 18.9333L25.6882 18.7555L25.4215 19.2888ZM26.8438 19.7333L26.666 19.4666L27.0215 19.3777L26.8438 19.7333ZM24.1771 19.7333L24.5326 19.4666V19.9999L24.1771 19.7333ZM22.3104 21.3333L22.666 21.0666L22.7549 21.6L22.3104 21.3333ZM23.6438 20.8888L23.9104 21.1555L24.0882 20.7999L23.6438 20.8888ZM17.7771 24.7999L17.5104 24.1777L18.3104 24.2666L17.7771 24.7999ZM20.266 22.6666L20.4438 22.9333L20.6215 22.5777L20.266 22.6666ZM25.4215 19.6444L25.5993 19.8222L25.7771 19.5555L25.4215 19.6444ZM20.4437 21.6888L20.6215 21.9555L20.7993 21.6L20.4437 21.6888ZM22.8437 20.8888L23.1993 20.6222L23.2882 21.1555L22.8437 20.8888ZM22.4882 20.6222L22.7548 20.0888H22.0437L22.4882 20.6222ZM22.1326 18.9333L21.866 19.7333L21.1549 18.9333H22.1326ZM23.9993 20.4444L23.7326 20.2666L23.6438 20.6222L23.9993 20.4444ZM22.7549 21.6888L23.0215 21.5111L23.1104 21.8666L22.7549 21.6888ZM21.6882 21.2444L21.4215 20.9777L21.3326 21.4222L21.6882 21.2444ZM16.266 29.7777L15.9993 30.0444L15.9104 29.5999L16.266 29.7777ZM14.8438 31.6444L15.0215 31.4666L14.7549 31.2888L14.8438 31.6444ZM15.3771 30.1333L15.1104 30.4L15.0215 30.0444L15.3771 30.1333ZM14.8437 32.2666L15.1104 32.5333L15.1993 32.0888L14.8437 32.2666ZM15.7326 31.111L15.2882 31.2888V30.8444L15.7326 31.111Z" fill="#FF593E"/>
<path fill-rule="evenodd" clip-rule="evenodd" d="M19.9994 22.3999L19.4661 21.9554L20.2661 21.5999L19.9994 22.3999ZM15.0216 28.7998L14.5772 28.3554L15.2883 28.1776L15.0216 28.7998ZM16.6217 30.7554L16.2661 30.9332V30.4887L16.6217 30.7554ZM14.9328 28.8887L14.4883 29.5999L15.555 29.6887L14.9328 28.8887ZM14.4883 30.7554V29.9554L15.1105 30.3998L14.4883 30.7554ZM14.8439 31.7332L14.6661 31.9998L15.0216 32.0887L14.8439 31.7332Z" fill="#FF593E"/>
<path fill-rule="evenodd" clip-rule="evenodd" d="M29.3326 15.8222L28.5326 15.111L29.5992 14.7555L29.3326 15.8222ZM28.2659 18.1333L28.7104 18.3111V17.7777L28.2659 18.1333ZM28.7992 18.2221L29.5104 18.3999L28.977 19.0222L28.7992 18.2221ZM19.1993 20.4444L19.5548 19.6444L20.0881 20.5333L19.1993 20.4444ZM19.9992 21.5999L20.177 21.3333L20.4437 21.6888L19.9992 21.5999ZM19.5548 20.8888L19.2881 21.4222L19.9992 21.511L19.5548 20.8888ZM22.0437 22.1333L22.6659 22.3111L22.2215 22.8444L22.0437 22.1333ZM19.7326 22.311L19.1992 22.2222L19.2881 22.8444L19.7326 22.311ZM27.4659 17.6888L27.377 18.4888L28.177 18.2222L27.4659 17.6888ZM28.177 16.3555L27.4659 15.7333L28.5326 15.3777L28.177 16.3555ZM24.6214 18.311L25.5103 18.4888L25.2437 17.511L24.6214 18.311ZM27.9992 18.6666L28.4437 18.7555L28.0881 19.1111L27.9992 18.6666Z" fill="#FF593E"/>
<path fill-rule="evenodd" clip-rule="evenodd" d="M28.9768 16.2665L28.3546 15.7332L29.2435 15.4666L28.9768 16.2665ZM22.3102 18.9332L22.6657 19.6443L23.1991 18.9332H22.3102ZM27.2879 20.7999L27.5546 20.8888L27.3768 21.2443L27.2879 20.7999ZM21.0657 22.2221L21.3324 22.311L21.1546 22.6665L21.0657 22.2221ZM19.8213 19.4666L20.6213 20.1777L20.9769 19.0221L19.8213 19.4666ZM23.2879 23.7332L23.0213 23.3777L23.4657 23.1999L23.2879 23.7332ZM28.9768 20.5332L29.3324 20.7999L29.5101 20.4443L28.9768 20.5332ZM25.9546 19.5554L25.6879 19.0221L26.3991 19.111L25.9546 19.5554ZM26.5768 18.311L26.2213 18.7554L26.8435 18.8443L26.5768 18.311ZM25.8657 18.5777L25.5991 18.0443H26.3102L25.8657 18.5777ZM24.7991 18.5777L25.0657 19.111L25.5102 18.6665L24.7991 18.5777ZM24.7102 19.9999L25.0657 20.0888L24.7991 20.3554L24.7102 19.9999ZM26.4879 20.5332L26.1324 20.4443L26.2213 20.8888L26.4879 20.5332ZM23.7324 23.9999L23.4657 23.7332L23.9101 23.5554L23.7324 23.9999ZM23.3768 22.4888L23.2879 22.7554L23.6435 22.8443L23.3768 22.4888ZM21.5102 21.5999L21.6879 21.9554H21.1546L21.5102 21.5999Z" fill="#FF593E"/>
<path fill-rule="evenodd" clip-rule="evenodd" d="M20.9775 22.3999L21.3331 22.0443L21.422 22.6665L20.9775 22.3999ZM22.1331 24.4443V23.9999L22.5775 24.2665L22.1331 24.4443Z" fill="#FF593E"/>
<path fill-rule="evenodd" clip-rule="evenodd" d="M31.8216 18.9332L32.6216 19.1999L31.9993 19.911L31.8216 18.9332ZM21.066 22.0443L21.2438 22.311L21.4216 21.9554L21.066 22.0443ZM19.1105 23.5554L18.5771 23.911L19.2883 24.1777L19.1105 23.5554ZM20.7993 24.1777L20.4438 23.911L20.8882 23.7332L20.7993 24.1777ZM22.3105 22.9332L22.666 23.1999L22.7549 22.7554L22.3105 22.9332ZM21.066 25.1554L20.7993 24.8888L21.2438 24.711L21.066 25.1554ZM21.2438 22.8443L21.066 23.111H21.5105L21.2438 22.8443ZM26.666 19.7332L26.3105 19.6443L26.3994 20.0888L26.666 19.7332ZM21.6882 23.911L22.0438 23.9999L21.7771 24.3554L21.6882 23.911Z" fill="#FF593E"/>
<path fill-rule="evenodd" clip-rule="evenodd" d="M28.8877 26.8444L29.3321 27.2L29.5099 26.6666L28.8877 26.8444ZM30.7544 27.2888L31.021 26.9333L31.2877 27.4666L30.7544 27.2888ZM31.821 27.9111L32.1766 27.7333L31.821 27.4666V27.9111ZM33.3322 28.3555L32.9766 28.8L32.7099 28.2666L33.3322 28.3555ZM39.9988 29.7777L39.5544 30.4L39.1988 29.6L39.9988 29.7777ZM41.2433 30.4L40.4433 29.3333L39.6432 30.4H41.2433ZM39.2877 30.4L38.221 30.3111L39.021 29.3333L39.2877 30.4ZM31.3766 28.2666L30.9321 27.7333L31.7321 27.4666L31.3766 28.2666Z" fill="#AF2500"/>
<path fill-rule="evenodd" clip-rule="evenodd" d="M33.4219 24.9776L33.2442 24.5332L33.0664 24.9776H33.4219ZM30.2219 25.0665L30.0442 24.711L29.8664 25.0665H30.2219ZM38.6664 25.7777L39.0219 25.5999L38.6664 25.4221V25.7777ZM29.0664 26.0443L29.3331 25.8665L29.0664 25.5999V26.0443ZM31.733 27.9999L31.9997 28.8888L31.1997 28.5332L31.733 27.9999ZM38.1331 29.4221L38.3997 30.311L37.2442 30.2221L38.1331 29.4221ZM33.0664 29.2443L32.8886 28.2665L32.0886 28.8888L33.0664 29.2443ZM34.5775 28.7999L34.9331 29.6888L33.8664 29.511L34.5775 28.7999ZM32.2664 27.911L32.4442 28.3554L31.9108 28.2665L32.2664 27.911ZM31.0219 25.9554L30.7553 25.6888L31.1108 25.5999L31.0219 25.9554ZM31.8219 26.311L31.3775 26.2221L31.4664 26.7554L31.8219 26.311ZM32.8886 25.9554V26.311L32.5331 26.0443L32.8886 25.9554ZM36.9775 25.0665L37.1553 25.4221L36.7997 25.511L36.9775 25.0665ZM33.5108 25.7776L33.7775 25.4221L33.9553 25.8665L33.5108 25.7776ZM35.8219 29.9554L36.6219 30.1332L36.4442 29.2443L35.8219 29.9554ZM31.3775 27.4665L31.8219 26.7554L32.2664 27.5554L31.3775 27.4665ZM36.6219 26.5777L36.5331 26.311L36.2664 26.5777H36.6219ZM38.7553 27.5554L38.3108 27.9999L38.133 27.3776L38.7553 27.5554ZM36.0886 25.8665L36.2664 26.0443L36.3553 25.7776L36.0886 25.8665ZM35.5553 25.1554L35.3775 25.0665L35.5553 24.7999V25.1554ZM38.9331 29.4221L39.1108 28.5332L38.1331 28.7999L38.9331 29.4221ZM35.8219 29.8665L34.933 29.7777L35.1108 29.0665L35.6442 28.8888L35.8219 29.8665Z" fill="#AF2500"/>
<path fill-rule="evenodd" clip-rule="evenodd" d="M40.2664 26.5777L40.7998 26.3999L40.622 27.0221L40.2664 26.5777ZM39.4664 27.8221L38.8442 27.4666L39.6442 27.0221L39.4664 27.8221ZM36.3553 28.7999L35.6442 29.0666L35.4664 28.6221L35.822 28.1777L36.3553 28.7999ZM37.0664 30.1332L36.5331 29.8666L37.2442 29.0666L37.5998 30.0444L37.0664 30.1332ZM37.2442 28.2666L37.8664 29.2443L38.3997 28.8888L38.6664 28.2666H37.2442ZM39.1109 28.9777L39.6442 29.9555L40.4442 28.9777H39.1109ZM33.0664 29.2444L33.6886 28.5333L34.0442 29.511L33.0664 29.2444ZM34.8442 27.5555L33.9553 27.8221L34.5775 28.6221L34.8442 27.5555Z" fill="#AF2500"/>
<path fill-rule="evenodd" clip-rule="evenodd" d="M43.7328 26.8444L44.3551 26.6666L44.0884 27.3777L43.7328 26.8444ZM36.9773 29.4222L35.9106 29.0666L36.9773 28.1777V29.4222ZM30.0439 27.9111L30.9328 28.3555L30.8439 27.5555L30.0439 27.9111ZM35.7328 27.3777L35.0217 27.6444L35.1995 26.7555L35.7328 27.3777ZM37.1551 26.8444L37.4217 27.1111L37.5995 26.7555L37.1551 26.8444ZM35.9995 26.8444L36.0884 27.2H35.6439L35.9995 26.8444ZM34.3106 29.3333V28.8888L33.8662 28.9777L34.3106 29.3333ZM32.7995 28.0888L32.6217 27.3777L33.4217 27.5555L32.7995 28.0888Z" fill="#AF2500"/>
<path fill-rule="evenodd" clip-rule="evenodd" d="M34.8441 26.9332L34.6663 27.3777L35.1107 27.2888L34.8441 26.9332ZM37.5107 28.1777L36.8885 27.8221L37.5996 27.2888L37.5107 28.1777ZM36.5329 28.2666L35.9107 27.8221L36.6218 27.3777L36.5329 28.2666ZM38.7552 28.711L39.3774 29.1554L39.4663 28.2666L38.7552 28.711ZM33.6885 28.0888L33.5996 27.7332L33.9552 27.8221L33.6885 28.0888ZM35.6441 28.711L34.8441 28.7999L34.933 27.6443L35.8218 28.3554L35.6441 28.711Z" fill="#AF2500"/>
<path fill-rule="evenodd" clip-rule="evenodd" d="M46.8434 25.6L46.6656 25.1555L47.1101 25.2444L46.8434 25.6ZM34.3101 25.8666L34.6656 25.7777L34.399 25.4222L34.3101 25.8666ZM35.199 25.9555L35.3768 25.6889L35.1101 25.6L35.199 25.9555ZM34.399 26.5777L34.2212 26.8444L34.0434 26.5777H34.399ZM35.0212 28.7111L34.7545 28.8888V28.6222L35.0212 28.7111ZM33.2434 28.6222L33.0656 28.3555L33.5101 28.2666L33.2434 28.6222ZM30.3101 26.7555L30.2212 27.2L30.6656 27.1111L30.3101 26.7555ZM32.6212 26.6666V27.2L32.0879 26.9333L32.6212 26.6666ZM38.2212 29.4222L37.6879 28.7111L37.2434 29.6L38.2212 29.4222ZM34.0434 27.5555V28L33.599 27.8222L34.0434 27.5555ZM29.9545 26.0444L30.1323 26.4L30.3101 25.9555L29.9545 26.0444ZM40.2656 25.9555L40.0879 25.6H40.4434L40.2656 25.9555ZM34.9323 26.5778L34.8434 26.2222L35.199 26.3111L34.9323 26.5778ZM29.9545 36.6222L28.7101 36.8889L29.5101 38.0444L29.9545 36.6222ZM39.4656 26.7555H39.0212L39.199 26.3111L39.4656 26.7555ZM44.0879 28.5333L44.9768 28.4444L44.4434 27.6444L44.0879 28.5333ZM43.6434 25.5111L43.7323 25.8666L43.999 25.6L43.6434 25.5111ZM26.6656 37.9555L27.1101 38.8444L25.9545 38.7555L26.6656 37.9555ZM42.3101 29.7777L42.4879 28.8889L41.5101 29.1555L42.3101 29.7777ZM40.799 29.2444L40.7101 29.6888L40.2657 29.3333L40.799 29.2444ZM40.9767 28.6222L41.1545 28.0888L40.5323 28.2666L40.9767 28.6222ZM30.1323 31.5555L30.399 32.9777L29.0656 32.2666L30.1323 31.5555ZM30.0434 31.4666L29.6879 30.3111L29.0656 31.2888L30.0434 31.4666ZM26.8434 30.6666L27.1101 31.1111H26.4879L26.8434 30.6666ZM28.2656 30.6666L27.999 30.2222L27.6434 30.6666H28.2656ZM24.9768 38.5777L25.0656 39.3777L24.1768 39.0222L24.9768 38.5777ZM25.4212 38.9333L25.7768 39.2L25.8657 38.6666L25.4212 38.9333ZM25.8656 38.5778L25.3323 38.2222L26.0434 37.7778L25.8656 38.5778ZM43.199 27.7333L43.4656 27.2H42.7545L43.199 27.7333ZM45.5101 25.5111L45.4212 25.9555L45.0656 25.6L45.5101 25.5111ZM26.2212 34.3111L26.0434 33.8666L25.6879 34.2222L26.2212 34.3111ZM25.7767 31.9111L25.4212 32.0889L25.5101 31.5555L25.7767 31.9111Z" fill="#AF2500"/>
<path fill-rule="evenodd" clip-rule="evenodd" d="M41.5993 27.0221L41.9548 27.3777L42.1326 26.8444L41.5993 27.0221ZM42.4881 27.911L41.5104 27.4666V28.711L42.4881 27.911ZM40.6215 27.7333L40.3548 28.8888L39.2881 28.0888L40.6215 27.7333ZM27.1993 29.7777L27.0215 29.4221L26.6659 29.7777H27.1993ZM28.977 30.9332L29.4215 31.8221L28.3548 31.7332L28.977 30.9332ZM27.8215 31.6444L28.2659 32.5333L27.1993 32.3555L27.8215 31.6444ZM42.8437 29.3333L43.6437 29.6888L42.8437 30.311V29.3333ZM48.177 28.711L47.377 28.2666L47.1993 29.2444L48.177 28.711ZM41.2437 28.6222L41.5992 29.4222H40.8881L41.2437 28.6222ZM26.3104 31.9999L26.0437 32.1777L26.3104 32.4444V31.9999ZM26.9326 33.7777L27.1104 33.9555L26.8437 34.0444L26.9326 33.7777ZM23.377 35.1999L23.5548 34.9333H23.1993L23.377 35.1999ZM25.4215 30.1332L25.2437 30.3999L25.0659 30.1332H25.4215ZM25.9548 28.8888L26.1326 28.6221L25.777 28.5332L25.9548 28.8888ZM24.8881 34.311L25.1548 34.5777L24.7993 34.7555L24.8881 34.311ZM26.3104 33.3333L25.9548 33.0666L25.777 33.5999L26.3104 33.3333ZM23.377 35.6444L23.1993 35.911L23.0215 35.6444H23.377ZM26.1326 39.7333L26.4881 40.5333L25.5103 40.4444L26.1326 39.7333ZM28.6215 34.5777L28.177 34.311L28.0881 34.9333L28.6215 34.5777ZM29.0659 34.311L29.777 34.7555L28.977 35.1999L29.0659 34.311ZM30.0437 35.9999L29.2437 35.7333L29.4215 36.711L30.0437 35.9999ZM44.8881 29.4221L44.6215 29.7777L44.4437 29.3333L44.8881 29.4221ZM45.1548 29.9555L45.6881 29.7777L44.977 29.511L45.1548 29.9555ZM41.2437 27.9999L40.6215 27.8222L41.1548 27.2888L41.2437 27.9999Z" fill="#AF2500"/>
<path fill-rule="evenodd" clip-rule="evenodd" d="M32.7988 26.6665L33.5099 26.9332L33.421 26.0443L32.7988 26.6665ZM41.5099 26.5776L42.0433 26.7554L41.9544 26.1332L41.5099 26.5776ZM45.1544 29.5999L44.621 28.8887L45.5988 28.7999L45.1544 29.5999Z" fill="#AF2500"/>
<path fill-rule="evenodd" clip-rule="evenodd" d="M45.2436 27.5555L45.0659 27.2888L44.8881 27.5555H45.2436ZM44.977 29.1555L45.5103 28.4444L45.8659 29.3332L44.977 29.1555ZM42.3992 29.6888L42.9325 29.8666L42.4881 30.2221L42.3992 29.6888ZM43.6437 30.2221L44.7103 30.0444L44.3548 29.3332L43.6437 30.2221ZM42.3992 30.3999H41.3325L41.5103 29.3332L42.3992 30.3999ZM27.5548 30.3999L27.377 30.0444L27.0214 30.3999H27.5548ZM28.977 34.4888L28.7103 34.6666V34.2221L28.977 34.4888ZM27.9103 28.9777L28.177 28.711L27.7325 28.6221L27.9103 28.9777ZM27.9103 29.7777L27.6436 29.5999L27.9992 29.4221L27.9103 29.7777ZM29.4214 32.7999L28.5326 32.6221L28.8881 33.6888L29.4214 32.7999ZM27.0214 35.8221L27.4659 35.7333L27.2881 36.1777L27.0214 35.8221ZM30.1325 35.7333L30.2214 34.8444L29.2436 35.1999L30.1325 35.7333ZM27.2881 32.711L27.5548 33.3333L26.7548 33.2444L27.2881 32.711ZM28.4437 36.6221L29.0659 36.3555L28.5326 35.7333L28.4437 36.6221ZM27.1103 35.0221L26.4881 35.4666L26.3992 34.5777L27.1103 35.0221ZM27.9992 35.911L28.5325 35.4666L27.8214 35.111L27.9992 35.911ZM27.8214 38.1333L27.1992 38.5777L27.1103 37.6888L27.8214 38.1333ZM30.3992 33.2444L29.1548 33.7777L30.3103 34.7555L30.3992 33.2444ZM29.1548 29.1555L29.5992 30.2221L28.2659 30.1332L29.1548 29.1555ZM26.7547 32.711L27.1992 32.2666L26.577 31.9999L26.7547 32.711ZM27.8214 31.1999L28.4436 31.0222L28.3548 31.8222L27.8214 31.1999ZM26.7548 30.1333L26.4881 29.7777L26.3103 30.1333H26.7548ZM27.4659 28.6221L27.1992 28.8888L27.1103 28.5332L27.4659 28.6221ZM23.6436 38.5777L23.9103 38.0444H23.2881L23.6436 38.5777ZM25.8659 39.911L25.6881 40.3555L25.3325 39.911H25.8659ZM27.2881 39.7332L27.7325 38.9332H26.6659L27.2881 39.7332ZM24.4436 38.3999L24.2659 38.8444L23.9992 38.3999H24.4436ZM25.5992 39.0221L25.777 38.6666H25.3325L25.5992 39.0221ZM25.5992 37.1555L25.9548 37.3332L25.6881 37.5999L25.5992 37.1555ZM28.6214 33.7777L27.9992 33.3333L27.8214 34.1333L28.6214 33.7777ZM26.6659 36.3555L26.9325 36.5333L26.6659 36.711V36.3555ZM46.3103 27.2888L46.4881 27.5555H46.1326L46.3103 27.2888ZM46.7548 28.2666L46.4881 27.911L46.1325 28.3555L46.7548 28.2666ZM26.9325 37.3333L27.2881 37.4221L26.9325 37.6888V37.3333ZM25.3325 39.7333L25.5103 39.2888H25.0659L25.3325 39.7333ZM26.0437 39.9999L25.9548 39.3777L26.6659 39.6444L26.0437 39.9999Z" fill="#AF2500"/>
<path fill-rule="evenodd" clip-rule="evenodd" d="M27.1099 26.4888L27.4655 26.5777L27.1988 26.8443L27.1099 26.4888ZM28.1766 27.1999L28.2655 26.8443L28.5322 27.111L28.1766 27.1999ZM27.0211 27.911L26.9322 28.3554L27.3766 28.2665L27.0211 27.911ZM26.5766 38.1332L26.7544 38.4888H26.3988L26.5766 38.1332ZM25.0655 38.8443L25.2433 38.5777H24.7988L25.0655 38.8443ZM25.4211 39.911H25.0655L25.3322 39.5554L25.4211 39.911ZM27.2877 40.3554L27.1099 39.5554L28.0877 39.8221L27.2877 40.3554ZM27.7322 27.8221L27.6433 28.1777L27.9988 28.0888L27.7322 27.8221ZM27.7322 27.1999L27.5544 27.5554H27.9988L27.7322 27.1999ZM28.71 30.6665L28.8877 30.3999L29.1544 30.7554L28.71 30.6665ZM28.9766 28.8888L28.4433 28.711L28.5322 29.4221L28.9766 28.8888ZM28.6211 27.911L28.8877 28.7999L27.8211 28.5332L28.6211 27.911Z" fill="#AF2500"/>
<path fill-rule="evenodd" clip-rule="evenodd" d="M28.6214 27.2888V27.911L28.0881 27.5555L28.6214 27.2888ZM27.2881 36.6222L27.9992 36.7111L27.4659 37.4222L27.2881 36.6222Z" fill="#AF2500"/>
<path fill-rule="evenodd" clip-rule="evenodd" d="M44.4435 26.0444L44.7991 26.1333V25.7777L44.4435 26.0444ZM43.8213 28.2666L43.4658 28.0888L43.7324 27.7333L43.8213 28.2666ZM43.0213 28.6222L42.3102 28.3555L42.9324 27.8222L43.0213 28.6222ZM27.5547 36.5333L28.1769 36.3555L27.6435 35.8222L27.5547 36.5333ZM28.4436 36.9777L27.7324 37.3333L28.4436 37.6888V36.9777ZM27.288 37.4221L27.6435 37.2444V37.5999L27.288 37.4221ZM28.088 38.311L28.9769 37.8666L29.0658 38.7555L28.088 38.311ZM25.688 37.8666L24.9769 38.0444L25.1546 37.3333L25.688 37.8666ZM43.1991 28.7999V29.4221L43.7324 29.0666L43.1991 28.7999ZM44.4435 28.5333L44.1769 29.3333L43.4658 28.711L44.4435 28.5333ZM47.1102 29.3333L46.3102 28.711V29.5999L47.1102 29.3333ZM26.488 37.2444L26.1324 37.3333L26.2213 36.9777L26.488 37.2444ZM27.288 40.3555L26.7546 39.7333L26.3991 40.5333L27.288 40.3555ZM27.9102 38.5777L28.9769 38.9333L27.9991 39.7333L27.9102 38.5777ZM24.1769 37.1555L23.7324 37.0666L23.9102 37.511L24.1769 37.1555ZM42.7546 25.9555L43.0213 26.2222L42.5769 26.311L42.7546 25.9555ZM48.3546 28.6221V27.6444L47.3769 28.1777L48.3546 28.6221ZM47.8213 27.8221L47.0213 27.5555L47.8213 27.0221V27.8221Z" fill="#AF2500"/>
<path fill-rule="evenodd" clip-rule="evenodd" d="M51.5548 24.1777L51.377 23.911L51.8214 23.8221L51.5548 24.1777ZM48.8881 24.8888L48.6214 24.6221L48.977 24.4444L48.8881 24.8888ZM47.1103 26.6666L46.577 26.9332L47.1103 27.3777V26.6666ZM47.9992 27.911L48.7103 28.1777L48.6214 27.2888L47.9992 27.911ZM48.0881 26.6666L48.5325 26.4888L48.177 26.1333L48.0881 26.6666ZM49.2436 26.2221L48.7992 26.4888L49.3325 26.7555L49.2436 26.2221ZM51.377 24.9777L51.1103 25.5999L50.6658 24.9777H51.377ZM48.977 27.9999L49.777 27.1999L48.5326 26.7555L48.977 27.9999ZM49.5992 26.0444L50.6659 26.2221L49.8659 27.1999L49.5992 26.0444ZM50.3992 25.6888L50.7548 25.9555L50.8436 25.4221L50.3992 25.6888ZM49.2437 26.0443L48.6214 25.9555L48.977 25.3332L49.2437 26.0443ZM49.8659 25.0666L50.3992 25.1555L50.1325 24.5333L49.8659 25.0666ZM51.2881 24.2666L51.6437 24.5332L51.1992 24.711L51.2881 24.2666ZM46.1325 28.0888L46.0437 27.5555L45.5103 27.9999L46.1325 28.0888ZM45.5992 28.3555L45.2436 28.7999L44.977 28.1777L45.5992 28.3555ZM46.1325 29.1555L45.9548 28.6221L45.5103 28.9777L46.1325 29.1555ZM46.8436 28.0888L46.9325 28.6221L46.3103 28.5332L46.8436 28.0888ZM47.1992 26.0444L47.5548 26.2221V25.7777L47.1992 26.0444ZM45.8659 26.6666L45.5992 26.5777L45.8659 26.2221V26.6666ZM23.6437 37.0666L23.1992 36.9777L23.2881 37.4221L23.6437 37.0666ZM23.9103 38.0444L24.2659 37.8666V38.2221L23.9103 38.0444ZM26.0437 37.8666L26.3992 38.0444L26.4881 37.5999L26.0437 37.8666ZM24.4437 35.8221L24.7103 36.1777L24.177 36.2666L24.4437 35.8221ZM27.1103 37.4221L27.2881 36.9777L26.7548 36.8888L27.1103 37.4221ZM26.2214 37.2443L26.577 37.4221L26.3103 37.6888L26.2214 37.2443ZM27.5548 35.111L27.7326 34.5777L27.1103 34.6666L27.5548 35.111ZM25.777 35.3777L26.2214 35.4666L25.8659 35.911L25.777 35.3777ZM24.977 37.2444L24.5325 37.1555L24.7103 37.5999L24.977 37.2444ZM24.977 34.7555L25.4214 34.8444L25.0659 35.1999L24.977 34.7555ZM26.0437 36.7999L25.9548 36.5333L25.5992 36.711L26.0437 36.7999ZM29.9548 27.8222L29.1548 27.4666L29.8659 27.1999L29.9548 27.8222ZM45.3325 27.2888L45.5992 27.3777V27.0221L45.3325 27.2888ZM25.0659 36.0888L24.7992 36.1777V35.7333L25.0659 36.0888Z" fill="#AF2500"/>
<path d="M46.666 44.5333C45.066 44.5333 43.7326 42.3111 43.7326 39.8222C43.7326 37.3333 45.066 35.1111 46.666 35.1111C46.9326 35.1111 47.2882 35.2 47.5548 35.2889V34.3111C47.2882 34.2222 47.0215 34.1333 46.7548 34.1333C44.6215 34.1333 42.9326 36.7111 42.9326 39.8222C42.9326 42.9333 44.6215 45.5111 46.7548 45.5111H47.1104L47.1993 44.6222C46.9326 44.4444 46.7548 44.5333 46.666 44.5333Z" fill="white"/>
<path d="M50.4882 39.7333C50.4882 37.0666 49.2437 34.7555 47.466 34.2222V35.1999C48.6215 35.8222 49.5104 37.5999 49.5104 39.7333C49.5104 42.0444 48.4437 43.9999 47.0215 44.3555L46.9326 45.2444C48.9771 45.0666 50.4882 42.6666 50.4882 39.7333Z" fill="#CCCCCC"/>
</g>
<defs>
<linearGradient id="paint0_linear_0_4652" x1="28.349" y1="65.2367" x2="35.8267" y2="59.0183" gradientUnits="userSpaceOnUse">
<stop stop-color="#BC5A32" stop-opacity="0.01"/>
<stop offset="0.99" stop-color="#BC5A32"/>
</linearGradient>
<linearGradient id="paint1_linear_0_4652" x1="41.5707" y1="33.1832" x2="40.1368" y2="25.3217" gradientUnits="userSpaceOnUse">
<stop stop-color="#BC5A32" stop-opacity="0.01"/>
<stop offset="0.99" stop-color="#BC5A32"/>
</linearGradient>
<linearGradient id="paint2_linear_0_4652" x1="23.1543" y1="46.376" x2="23.4783" y2="41.6417" gradientUnits="userSpaceOnUse">
<stop stop-color="#CC7A5E" stop-opacity="0.01"/>
<stop offset="0.924" stop-color="#AA5F4B"/>
</linearGradient>
</defs>
</svg>
